<svg xmlns="http://www.w3.org/2000/svg" xmlns:xlink="http://www.w3.org/1999/xlink" width="500" zoomAndPan="magnify" viewBox="0 0 375 374.999991" height="500" preserveAspectRatio="xMidYMid meet" version="1.0"><defs><clipPath id="487323b4ec"><path d="M 65.507812 134.957031 L 337.757812 134.957031 L 337.757812 260.207031 L 65.507812 260.207031 Z M 65.507812 134.957031 " clip-rule="nonzero"/></clipPath></defs><g clip-path="url(#487323b4ec)"><path fill="#5e17eb" d="M 308.445312 141.441406 C 305.722656 140.6875 302.964844 140.0625 300.195312 139.527344 C 297.421875 139 294.628906 138.582031 291.828125 138.257812 C 286.222656 137.597656 280.578125 137.375 274.953125 137.460938 C 269.324219 137.566406 263.707031 137.988281 258.140625 138.714844 C 252.566406 139.429688 247.042969 140.4375 241.574219 141.660156 C 236.109375 142.894531 230.699219 144.34375 225.351562 145.992188 C 220.007812 147.628906 214.726562 149.46875 209.503906 151.449219 C 204.285156 153.433594 199.128906 155.574219 194.035156 157.839844 C 188.941406 160.113281 183.90625 162.507812 178.929688 165.015625 C 173.953125 167.523438 169.042969 170.148438 164.179688 172.855469 C 162.4375 173.828125 160.707031 174.816406 158.980469 175.8125 C 155.121094 178.039062 151.300781 180.320312 147.511719 182.65625 C 143.527344 185.113281 139.574219 187.628906 135.660156 190.199219 C 126.367188 196.308594 117.273438 202.71875 108.378906 209.402344 C 107.199219 210.289062 106.019531 211.183594 104.847656 212.085938 L 115.464844 193.832031 L 134.929688 160.3125 L 145.503906 179.09375 C 149.273438 176.78125 153.074219 174.515625 156.898438 172.296875 L 140.457031 144.507812 L 134.824219 134.992188 L 129.542969 144.558594 L 105.460938 188.160156 L 93.40625 209.953125 L 87.371094 220.839844 L 81.324219 231.691406 L 65.519531 260.054688 L 89.367188 238.136719 L 90.824219 236.792969 L 92.328125 235.4375 C 93.339844 234.535156 94.359375 233.636719 95.382812 232.742188 C 97.429688 230.953125 99.503906 229.179688 101.589844 227.429688 C 105.765625 223.921875 110.003906 220.480469 114.300781 217.105469 C 122.886719 210.355469 131.6875 203.863281 140.683594 197.667969 C 144.351562 195.144531 148.054688 192.671875 151.789062 190.253906 C 155.578125 187.792969 159.40625 185.394531 163.265625 183.054688 C 164.9375 182.042969 166.613281 181.039062 168.296875 180.050781 C 173.003906 177.292969 177.761719 174.617188 182.578125 172.0625 C 187.390625 169.503906 192.265625 167.054688 197.191406 164.730469 C 202.117188 162.410156 207.101562 160.214844 212.144531 158.171875 C 217.1875 156.132812 222.28125 154.234375 227.441406 152.53125 C 232.59375 150.820312 237.8125 149.304688 243.070312 147.996094 C 248.332031 146.699219 253.644531 145.613281 258.992188 144.808594 C 264.339844 143.992188 269.722656 143.472656 275.113281 143.253906 C 280.5 143.058594 285.894531 143.25 291.261719 143.667969 C 316.585938 145.65625 337.5 153.21875 337.5 153.21875 C 337.5 153.21875 328.378906 146.964844 308.445312 141.441406 " fill-opacity="1" fill-rule="nonzero"/></g><path fill="#5e17eb" d="M 192.851562 233.054688 L 171.445312 196.875 C 171.359375 196.933594 171.273438 196.992188 171.1875 197.050781 C 170.207031 197.699219 169.214844 198.328125 168.25 198.996094 L 165.339844 200.984375 C 164.363281 201.640625 163.410156 202.324219 162.453125 203.003906 L 159.960938 204.769531 L 175.886719 233.054688 L 192.851562 233.054688 " fill-opacity="1" fill-rule="nonzero"/></svg>