<svg xmlns="http://www.w3.org/2000/svg" xmlns:xlink="http://www.w3.org/1999/xlink" width="500" zoomAndPan="magnify" viewBox="0 0 375 374.999991" height="500" preserveAspectRatio="xMidYMid meet" version="1.0"><defs><g/><clipPath id="58c80edc1c"><path d="M 11.585938 112.398438 L 367.835938 112.398438 L 367.835938 276.648438 L 11.585938 276.648438 Z M 11.585938 112.398438 " clip-rule="nonzero"/></clipPath></defs><rect x="-37.5" width="450" fill="#ffffff" y="-37.499999" height="449.999989" fill-opacity="1"/><rect x="-37.5" width="450" fill="#ffffff" y="-37.499999" height="449.999989" fill-opacity="1"/><g clip-path="url(#58c80edc1c)"><path fill="#5e17eb" d="M 329.96875 120.890625 C 326.402344 119.902344 322.792969 119.082031 319.15625 118.382812 C 315.523438 117.691406 311.867188 117.144531 308.191406 116.71875 C 300.847656 115.855469 293.453125 115.558594 286.078125 115.671875 C 278.699219 115.808594 271.339844 116.363281 264.042969 117.316406 C 256.742188 118.253906 249.503906 119.574219 242.332031 121.175781 C 235.171875 122.796875 228.082031 124.691406 221.074219 126.851562 C 214.066406 129 207.144531 131.410156 200.304688 134.003906 C 193.464844 136.605469 186.707031 139.414062 180.027344 142.382812 C 173.351562 145.363281 166.753906 148.5 160.234375 151.789062 C 153.710938 155.074219 147.273438 158.511719 140.902344 162.058594 C 138.621094 163.335938 136.351562 164.632812 134.085938 165.9375 C 129.03125 168.851562 124.023438 171.84375 119.054688 174.90625 C 113.832031 178.125 108.652344 181.421875 103.527344 184.789062 C 91.34375 192.796875 79.425781 201.195312 67.769531 209.957031 C 66.222656 211.121094 64.679688 212.292969 63.140625 213.472656 L 77.054688 189.550781 L 102.566406 145.621094 L 116.425781 170.234375 C 121.367188 167.207031 126.347656 164.238281 131.359375 161.328125 L 109.808594 124.910156 L 102.429688 112.441406 L 95.507812 124.972656 L 63.949219 182.117188 L 48.148438 210.675781 L 40.238281 224.945312 L 32.3125 239.167969 L 11.601562 276.339844 L 42.851562 247.613281 L 44.761719 245.855469 L 46.734375 244.078125 C 48.058594 242.894531 49.394531 241.71875 50.738281 240.542969 C 53.421875 238.199219 56.136719 235.878906 58.871094 233.582031 C 64.34375 228.984375 69.902344 224.476562 75.53125 220.050781 C 86.785156 211.203125 98.316406 202.699219 110.109375 194.578125 C 114.914062 191.269531 119.769531 188.035156 124.660156 184.859375 C 129.628906 181.640625 134.644531 178.492188 139.703125 175.429688 C 141.894531 174.101562 144.089844 172.785156 146.296875 171.492188 C 152.464844 167.875 158.703125 164.371094 165.015625 161.023438 C 171.324219 157.664062 177.707031 154.460938 184.164062 151.410156 C 190.625 148.371094 197.152344 145.492188 203.765625 142.816406 C 210.371094 140.140625 217.050781 137.660156 223.808594 135.425781 C 230.5625 133.179688 237.398438 131.195312 244.292969 129.480469 C 251.191406 127.777344 258.148438 126.359375 265.160156 125.304688 C 272.164062 124.234375 279.222656 123.554688 286.285156 123.265625 C 293.347656 123.007812 300.417969 123.261719 307.449219 123.808594 C 340.636719 126.410156 368.050781 136.324219 368.050781 136.324219 C 368.050781 136.324219 356.097656 128.125 329.96875 120.890625 " fill-opacity="1" fill-rule="nonzero"/></g><path fill="#5e17eb" d="M 178.480469 240.953125 L 150.425781 193.542969 C 150.308594 193.617188 150.195312 193.691406 150.085938 193.769531 C 148.800781 194.617188 147.5 195.441406 146.234375 196.320312 L 142.421875 198.925781 C 141.144531 199.78125 139.894531 200.683594 138.636719 201.570312 L 135.375 203.882812 L 156.246094 240.953125 L 178.480469 240.953125 " fill-opacity="1" fill-rule="nonzero"/><g fill="#5e17eb" fill-opacity="1"><g transform="translate(189.810842, 236.777856)"><g><path d="M 4.753906 -66.820312 L 4.753906 -26.898438 L 24.902344 -26.898438 L 37.355469 -0.09375 L 47.429688 -0.09375 L 34.40625 -27.945312 C 37.542969 -28.894531 40.109375 -30.226562 42.105469 -31.9375 C 46.003906 -35.359375 47.902344 -40.300781 47.902344 -46.859375 C 47.902344 -53.417969 46.003906 -58.359375 42.105469 -61.6875 C 38.304688 -65.109375 32.695312 -66.820312 25.1875 -66.820312 Z M 13.78125 -58.835938 L 25.1875 -58.835938 C 29.371094 -58.835938 32.601562 -57.882812 34.882812 -55.601562 C 37.164062 -53.417969 38.304688 -50.46875 38.304688 -46.859375 C 38.304688 -43.246094 37.164062 -40.492188 34.882812 -38.210938 C 32.601562 -36.023438 29.371094 -34.882812 25.1875 -34.882812 L 13.78125 -34.882812 Z M 4.753906 -17.773438 L 4.753906 0 L 13.78125 0 L 13.78125 -17.773438 Z M 4.753906 -17.773438 "/></g></g></g><g fill="#5e17eb" fill-opacity="1"><g transform="translate(242.371877, 236.777856)"><g><path d="M 4.753906 -66.820312 L 4.753906 -16.726562 L 13.78125 -16.726562 L 13.78125 -31.839844 L 46.953125 -31.746094 L 46.953125 -39.445312 L 13.78125 -39.445312 L 13.78125 -59.214844 L 46.953125 -59.214844 L 46.953125 -66.820312 Z M 4.753906 -7.605469 L 4.753906 0 L 46.953125 0 L 46.953125 -7.605469 Z M 4.753906 -7.605469 "/></g></g></g><g fill="#5e17eb" fill-opacity="1"><g transform="translate(294.077482, 236.777856)"><g><path d="M 31.9375 -37.640625 L 31.9375 -28.703125 C 34.21875 -27.945312 36.214844 -26.707031 37.828125 -25.09375 C 39.921875 -22.527344 40.679688 -19.960938 40.109375 -17.296875 C 39.636719 -14.636719 38.210938 -12.640625 35.738281 -11.214844 C 33.648438 -10.265625 31.367188 -9.601562 28.515625 -9.21875 C 25.757812 -8.933594 23.476562 -8.839844 21.480469 -8.933594 C 19.578125 -9.125 16.824219 -9.21875 13.210938 -9.601562 C 9.695312 -9.980469 7.128906 -10.265625 5.609375 -10.359375 L 5.039062 -1.425781 C 6.75 -1.425781 9.695312 -1.234375 14.066406 -0.855469 C 18.535156 -0.476562 22.050781 -0.378906 24.617188 -0.191406 C 27.277344 -0.09375 30.226562 -0.285156 33.648438 -0.855469 C 37.164062 -1.425781 40.109375 -2.472656 42.390625 -3.898438 C 46.953125 -6.84375 49.425781 -11.40625 49.804688 -17.488281 C 50.183594 -22.8125 48.855469 -26.992188 45.8125 -30.226562 C 42.960938 -33.457031 38.304688 -35.929688 31.9375 -37.640625 Z M 11.882812 -62.730469 C 7.507812 -59.785156 5.132812 -55.507812 4.753906 -49.804688 C 4.5625 -44.957031 5.796875 -41.0625 8.554688 -38.019531 C 11.214844 -35.359375 16.0625 -33.078125 22.90625 -31.175781 L 22.90625 -40.015625 C 21.195312 -40.207031 19.578125 -40.871094 18.25 -42.011719 C 16.917969 -43.246094 16.0625 -44.578125 15.492188 -46.003906 C 14.921875 -47.523438 14.730469 -48.949219 15.015625 -50.46875 C 15.398438 -52.085938 16.15625 -53.417969 17.296875 -54.367188 C 18.628906 -55.316406 20.148438 -56.078125 22.144531 -56.554688 C 24.238281 -57.125 26.519531 -57.410156 29.085938 -57.410156 C 31.746094 -57.503906 33.933594 -57.503906 35.738281 -57.410156 C 37.640625 -57.410156 39.824219 -57.21875 42.488281 -56.933594 C 45.148438 -56.742188 46.761719 -56.554688 47.144531 -56.457031 L 47.714844 -65.394531 L 40.777344 -65.867188 C 37.640625 -66.152344 34.976562 -66.34375 32.792969 -66.4375 C 30.699219 -66.628906 28.230469 -66.722656 25.472656 -66.535156 C 22.8125 -66.4375 20.246094 -66.152344 17.964844 -65.488281 C 15.683594 -64.917969 13.6875 -63.96875 11.882812 -62.730469 Z M 11.882812 -62.730469 "/></g></g></g></svg>